<svg width="40" height="40" viewBox="0 0 40 40" fill="none" xmlns="http://www.w3.org/2000/svg">
<path d="M3.75 10.3125H36.25C36.9404 10.3125 37.5 9.75289 37.5 9.0625V5.9375C37.5 5.24711 36.9404 4.6875 36.25 4.6875H3.75C3.05961 4.6875 2.5 5.24711 2.5 5.9375V9.0625C2.5 9.75289 3.05961 10.3125 3.75 10.3125ZM3.75 22.8125H36.25C36.9404 22.8125 37.5 22.2529 37.5 21.5625V18.4375C37.5 17.7471 36.9404 17.1875 36.25 17.1875H3.75C3.05961 17.1875 2.5 17.7471 2.5 18.4375V21.5625C2.5 22.2529 3.05961 22.8125 3.75 22.8125ZM3.75 35.3125H36.25C36.9404 35.3125 37.5 34.7529 37.5 34.0625V30.9375C37.5 30.2471 36.9404 29.6875 36.25 29.6875H3.75C3.05961 29.6875 2.5 30.2471 2.5 30.9375V34.0625C2.5 34.7529 3.05961 35.3125 3.75 35.3125Z" fill="white"/>
</svg>
