<svg width="40" height="40" viewBox="0 0 40 40" fill="none" xmlns="http://www.w3.org/2000/svg">
<path fill-rule="evenodd" clip-rule="evenodd" d="M11.5858 8.58579C10.8047 7.80474 9.53841 7.80474 8.75736 8.58579C7.97631 9.36683 7.97631 10.6332 8.75736 11.4142L17.3431 20L8.58579 28.7574C7.80474 29.5384 7.80474 30.8047 8.58579 31.5858C9.36683 32.3668 10.6332 32.3668 11.4142 31.5858L20.1716 22.8284L28.5563 31.2132C29.3374 31.9943 30.6037 31.9943 31.3848 31.2132C32.1658 30.4322 32.1658 29.1658 31.3848 28.3848L23 20L31.2132 11.7868C31.9943 11.0057 31.9943 9.73942 31.2132 8.95837C30.4322 8.17732 29.1658 8.17732 28.3848 8.95837L20.1716 17.1716L11.5858 8.58579Z" fill="white"/>
</svg>
