<svg width="40" height="40" viewBox="0 0 40 40" fill="none" xmlns="http://www.w3.org/2000/svg">
<path d="M33.6 18.1625C33.8562 17.4938 34 16.7625 34 16C34 12.6875 31.3125 10 28 10C26.7687 10 25.6188 10.375 24.6688 11.0125C22.9375 8.0125 19.7062 6 16 6C10.475 6 6 10.475 6 16C6 16.1687 6.00625 16.3375 6.0125 16.5063C2.5125 17.7375 0 21.075 0 25C0 29.9688 4.03125 34 9 34H32C36.4188 34 40 30.4188 40 26C40 22.1313 37.25 18.9 33.6 18.1625ZM25.2938 23.7062L18.7062 30.2938C18.3187 30.6813 17.6813 30.6813 17.2938 30.2938L10.7063 23.7062C10.075 23.075 10.525 22 11.4125 22H15.5V15C15.5 14.45 15.95 14 16.5 14H19.5C20.05 14 20.5 14.45 20.5 15V22H24.5875C25.475 22 25.925 23.075 25.2938 23.7062Z" fill="white"/>
</svg>
