<svg width="40" height="40" viewBox="0 0 40 40" fill="none" xmlns="http://www.w3.org/2000/svg">
<g clip-path="url(#clip0_1087_897)">
<path d="M33.75 25H31.25C30.9185 25 30.6005 25.1317 30.3661 25.3661C30.1317 25.6005 30 25.9185 30 26.25V35H5V10H16.25C16.5815 10 16.8995 9.8683 17.1339 9.63388C17.3683 9.39946 17.5 9.08152 17.5 8.75V6.25C17.5 5.91848 17.3683 5.60054 17.1339 5.36612C16.8995 5.1317 16.5815 5 16.25 5H3.75C2.75544 5 1.80161 5.39509 1.09835 6.09835C0.395088 6.80161 0 7.75544 0 8.75L0 36.25C0 37.2446 0.395088 38.1984 1.09835 38.9016C1.80161 39.6049 2.75544 40 3.75 40H31.25C32.2446 40 33.1984 39.6049 33.9016 38.9016C34.6049 38.1984 35 37.2446 35 36.25V26.25C35 25.9185 34.8683 25.6005 34.6339 25.3661C34.3995 25.1317 34.0815 25 33.75 25ZM38.125 0H28.125C26.4555 0 25.6211 2.02422 26.7969 3.20312L29.5883 5.99453L10.5469 25.0289C10.3721 25.2031 10.2334 25.4101 10.1387 25.638C10.0441 25.8659 9.9954 26.1103 9.9954 26.357C9.9954 26.6038 10.0441 26.8482 10.1387 27.0761C10.2334 27.304 10.3721 27.511 10.5469 27.6852L12.318 29.4531C12.4922 29.6279 12.6991 29.7666 12.9271 29.8613C13.155 29.9559 13.3993 30.0046 13.6461 30.0046C13.8929 30.0046 14.1372 29.9559 14.3651 29.8613C14.593 29.7666 14.8 29.6279 14.9742 29.4531L34.0062 10.4156L36.7969 13.2031C37.9688 14.375 40 13.5547 40 11.875V1.875C40 1.37772 39.8025 0.900805 39.4508 0.549175C39.0992 0.197544 38.6223 0 38.125 0Z" fill="white"/>
</g>
<defs>
<clipPath id="clip0_1087_897">
<rect width="40" height="40" fill="white"/>
</clipPath>
</defs>
</svg>
