<svg width="120" height="120" viewBox="0 0 120 120" fill="none" xmlns="http://www.w3.org/2000/svg">
<path fill-rule="evenodd" clip-rule="evenodd" d="M0 8.11304C0 3.63233 3.63234 0 8.11305 0H59.713C64.1937 0 67.8261 3.63233 67.8261 8.11304V78.2609H104.348V67.8261H86.3739C81.8932 67.8261 78.2609 64.1937 78.2609 59.713V8.11304C78.2609 3.63233 81.8932 0 86.3739 0H111.887C116.368 0 120 3.63233 120 8.11304V33.913C120 38.2353 116.496 41.7391 112.174 41.7391C107.852 41.7391 104.348 38.2353 104.348 33.913V15.6522H93.913V52.1739H111.887C116.368 52.1739 120 55.8062 120 60.287V85.8C120 90.2807 116.368 93.913 111.887 93.913H60.287C55.8062 93.913 52.1739 90.2807 52.1739 85.8V15.6522H41.7391V86.087C41.7391 90.4092 38.2353 93.913 33.913 93.913C29.5908 93.913 26.087 90.4092 26.087 86.087V15.6522H16.0162V104.348H86.087C90.4092 104.348 93.913 107.852 93.913 112.174C93.913 116.496 90.4092 120 86.087 120H8.11304C3.63233 120 0 116.368 0 111.887V8.11304Z" fill="white"/>
<path d="M120 112.174C120 116.496 116.496 120 112.174 120C107.852 120 104.348 116.496 104.348 112.174C104.348 107.852 107.852 104.348 112.174 104.348C116.496 104.348 120 107.852 120 112.174Z" fill="#039CE3"/>
</svg>
